<svg width="287" height="287" viewBox="0 0 287 287" fill="none" xmlns="http://www.w3.org/2000/svg">
<path d="M202.691 151.81L162.938 174.755" stroke="#AEBBBA" stroke-width="1.43407" stroke-miterlimit="1.5" stroke-linecap="round" stroke-linejoin="round"/>
<path d="M7.94434 158.694L117.249 79.5335L226.554 32.4961L266.306 55.4412" stroke="#1F4B45" stroke-width="1.43407" stroke-miterlimit="1.5" stroke-linecap="round" stroke-linejoin="round"/>
<path d="M156.858 102.421L117.249 79.562" stroke="#1F4B45" stroke-width="1.43407" stroke-miterlimit="1.5" stroke-linecap="round" stroke-linejoin="round"/>
<path d="M280.188 123.129V132.307" stroke="#1F4B45" stroke-width="1.43407" stroke-miterlimit="1.5" stroke-linecap="round" stroke-linejoin="round"/>
<path d="M266.134 55.3838L156.829 102.421L47.5244 181.582" stroke="#1F4B45" stroke-width="1.43407" stroke-miterlimit="1.5" stroke-linecap="round" stroke-linejoin="round"/>
<path d="M7.94434 227.529V158.694L47.6967 181.639" stroke="#1F4B45" stroke-width="1.43407" stroke-miterlimit="1.5" stroke-linecap="round" stroke-linejoin="round"/>
<path d="M61.6074 258.505L125.194 221.793" stroke="#1F4B45" stroke-width="1.43407" stroke-miterlimit="1.5" stroke-linecap="round" stroke-linejoin="round"/>
<path d="M214.594 170.166L280.159 132.307" stroke="#1F4B45" stroke-width="1.43407" stroke-miterlimit="1.5" stroke-linecap="round" stroke-linejoin="round"/>
<path d="M218.58 107.067V138.158L250.445 119.745V88.6826" stroke="#AEBBBA" stroke-width="1.43407" stroke-miterlimit="1.5" stroke-linecap="round" stroke-linejoin="round"/>
<path d="M218.58 131.275L250.445 112.861" stroke="#AEBBBA" stroke-width="1.43407" stroke-miterlimit="1.5" stroke-linecap="round" stroke-linejoin="round"/>
<path d="M218.58 124.391L250.445 105.978" stroke="#AEBBBA" stroke-width="1.43407" stroke-miterlimit="1.5" stroke-linecap="round" stroke-linejoin="round"/>
<path d="M218.58 117.507L250.445 99.0938" stroke="#AEBBBA" stroke-width="1.43407" stroke-miterlimit="1.5" stroke-linecap="round" stroke-linejoin="round"/>
<path d="M218.58 110.624L250.388 92.2681" stroke="#AEBBBA" stroke-width="1.43407" stroke-miterlimit="1.5" stroke-linecap="round" stroke-linejoin="round"/>
<path d="M256.325 120.834L214.594 144.926" stroke="#1F4B45" stroke-width="1.43407" stroke-miterlimit="1.5" stroke-linecap="round" stroke-linejoin="round"/>
<path d="M266.277 111.083V99.0366V55.4409" stroke="#1F4B45" stroke-width="1.43407" stroke-miterlimit="1.5" stroke-linecap="round" stroke-linejoin="round"/>
<path d="M214.594 144.927V101.332" stroke="#1F4B45" stroke-width="1.43407" stroke-miterlimit="1.5" stroke-linecap="round" stroke-linejoin="round"/>
<path d="M233.495 95.0214L218.58 103.626L214.594 101.331L254.346 78.3862L258.333 80.6807L233.495 95.0214Z" stroke="#1F4B45" stroke-width="1.43407" stroke-miterlimit="1.5" stroke-linecap="round" stroke-linejoin="round"/>
<path d="M218.581 103.625L216.602 108.214L214.623 107.067" stroke="#1F4B45" stroke-width="1.43407" stroke-miterlimit="1.5" stroke-linecap="round" stroke-linejoin="round"/>
<path d="M216.601 108.214L256.353 85.2691L258.475 80.7661" stroke="#1F4B45" stroke-width="1.43407" stroke-miterlimit="1.5" stroke-linecap="round" stroke-linejoin="round"/>
<path d="M254.346 121.982V86.417" stroke="#1F4B45" stroke-width="1.43407" stroke-miterlimit="1.5" stroke-linecap="round" stroke-linejoin="round"/>
<path d="M166.925 136.925V150.692L199.191 132.049V118.282" stroke="#AEBBBA" stroke-width="1.43407" stroke-miterlimit="1.5" stroke-linecap="round" stroke-linejoin="round"/>
<path d="M166.925 143.78L199.191 125.137" stroke="#AEBBBA" stroke-width="1.43407" stroke-miterlimit="1.5" stroke-linecap="round" stroke-linejoin="round"/>
<path d="M164.946 138.072L198.733 118.569" stroke="#AEBBBA" stroke-width="1.43407" stroke-miterlimit="1.5" stroke-linecap="round" stroke-linejoin="round"/>
<path d="M202.69 151.81L192.767 146.074" stroke="#AEBBBA" stroke-width="1.43407" stroke-miterlimit="1.5" stroke-linecap="round" stroke-linejoin="round"/>
<path d="M202.691 151.811L214.623 144.927" stroke="#1F4B45" stroke-width="1.43407" stroke-miterlimit="1.5" stroke-linecap="round" stroke-linejoin="round"/>
<path d="M181.81 124.85L166.896 133.454L162.909 131.159L202.662 108.214L206.648 110.509L181.81 124.85Z" stroke="#1F4B45" stroke-width="1.43407" stroke-miterlimit="1.5" stroke-linecap="round" stroke-linejoin="round"/>
<path d="M166.926 133.454L164.947 138.043L162.968 136.896" stroke="#1F4B45" stroke-width="1.43407" stroke-miterlimit="1.5" stroke-linecap="round" stroke-linejoin="round"/>
<path d="M164.918 138.043L204.67 115.098L206.793 110.595" stroke="#1F4B45" stroke-width="1.43407" stroke-miterlimit="1.5" stroke-linecap="round" stroke-linejoin="round"/>
<path d="M162.938 156.399L202.691 133.454" stroke="#1F4B45" stroke-width="1.43407" stroke-miterlimit="1.5" stroke-linecap="round" stroke-linejoin="round"/>
<path d="M162.938 174.755V131.504" stroke="#1F4B45" stroke-width="1.43407" stroke-miterlimit="1.5" stroke-linecap="round" stroke-linejoin="round"/>
<path d="M181.867 151.208L184.85 152.929L192.795 148.34" stroke="#1F4B45" stroke-width="1.43407" stroke-miterlimit="1.5" stroke-linecap="round" stroke-linejoin="round"/>
<path d="M181.867 145.472L184.85 147.193L192.795 142.604L189.812 140.883" stroke="#1F4B45" stroke-width="1.43407" stroke-miterlimit="1.5" stroke-linecap="round" stroke-linejoin="round"/>
<path d="M192.796 148.34V142.604" stroke="#1F4B45" stroke-width="1.43407" stroke-miterlimit="1.5" stroke-linecap="round" stroke-linejoin="round"/>
<path d="M184.852 147.193V152.929" stroke="#1F4B45" stroke-width="1.43407" stroke-miterlimit="1.5" stroke-linecap="round" stroke-linejoin="round"/>
<path d="M165.921 154.678L173.866 159.267L181.81 154.678" stroke="#1F4B45" stroke-width="1.43407" stroke-miterlimit="1.5" stroke-linecap="round" stroke-linejoin="round"/>
<path d="M170.882 151.81L173.865 153.531L181.809 148.942L178.827 147.221" stroke="#1F4B45" stroke-width="1.43407" stroke-miterlimit="1.5" stroke-linecap="round" stroke-linejoin="round"/>
<path d="M177.853 151.237L174.87 149.516" stroke="#1F4B45" stroke-width="1.43407" stroke-miterlimit="1.5" stroke-linecap="round" stroke-linejoin="round"/>
<path d="M181.812 154.679V148.942" stroke="#1F4B45" stroke-width="1.43407" stroke-miterlimit="1.5" stroke-linecap="round" stroke-linejoin="round"/>
<path d="M173.865 153.531V159.268" stroke="#1F4B45" stroke-width="1.43407" stroke-miterlimit="1.5" stroke-linecap="round" stroke-linejoin="round"/>
<path d="M151.006 181.639L118.224 200.568" stroke="#AEBBBA" stroke-width="1.43407" stroke-miterlimit="1.5" stroke-linecap="round" stroke-linejoin="round"/>
<path d="M115.241 166.725V189.67L147.02 171.314V148.369" stroke="#AEBBBA" stroke-width="1.43407" stroke-miterlimit="1.5" stroke-linecap="round" stroke-linejoin="round"/>
<path d="M115.241 182.786L147.02 164.43" stroke="#AEBBBA" stroke-width="1.43407" stroke-miterlimit="1.5" stroke-linecap="round" stroke-linejoin="round"/>
<path d="M115.241 175.903L147.049 157.547" stroke="#AEBBBA" stroke-width="1.43407" stroke-miterlimit="1.5" stroke-linecap="round" stroke-linejoin="round"/>
<path d="M115.27 169.048L147.048 150.72" stroke="#AEBBBA" stroke-width="1.43407" stroke-miterlimit="1.5" stroke-linecap="round" stroke-linejoin="round"/>
<path d="M151.007 181.639L144.066 177.624" stroke="#AEBBBA" stroke-width="1.43407" stroke-miterlimit="1.5" stroke-linecap="round" stroke-linejoin="round"/>
<path d="M151.007 181.639V146.074" stroke="#1F4B45" stroke-width="1.43407" stroke-miterlimit="1.5" stroke-linecap="round" stroke-linejoin="round"/>
<path d="M151.064 181.61L162.939 174.755" stroke="#1F4B45" stroke-width="1.43407" stroke-miterlimit="1.5" stroke-linecap="round" stroke-linejoin="round"/>
<path d="M111.283 202.289V160.988" stroke="#1F4B45" stroke-width="1.43407" stroke-miterlimit="1.5" stroke-linecap="round" stroke-linejoin="round"/>
<path d="M132.135 153.531L115.357 163.225L111.37 160.931L151.008 138.043L154.994 140.337L132.135 153.531Z" stroke="#1F4B45" stroke-width="1.43407" stroke-miterlimit="1.5" stroke-linecap="round" stroke-linejoin="round"/>
<path d="M115.242 163.283L113.263 167.872L111.398 166.782" stroke="#1F4B45" stroke-width="1.43407" stroke-miterlimit="1.5" stroke-linecap="round" stroke-linejoin="round"/>
<path d="M113.319 167.843L153.014 144.927L155.137 140.424" stroke="#1F4B45" stroke-width="1.43407" stroke-miterlimit="1.5" stroke-linecap="round" stroke-linejoin="round"/>
<path d="M111.283 196.553L151.036 173.608" stroke="#1F4B45" stroke-width="1.43407" stroke-miterlimit="1.5" stroke-linecap="round" stroke-linejoin="round"/>
<path d="M95.3945 209.345V178.226" stroke="#AEBBBA" stroke-width="1.43407" stroke-miterlimit="1.5" stroke-linecap="round" stroke-linejoin="round"/>
<path d="M63.5869 227.672V196.553" stroke="#AEBBBA" stroke-width="1.43407" stroke-miterlimit="1.5" stroke-linecap="round" stroke-linejoin="round"/>
<path d="M63.5869 207.022L95.3945 188.666" stroke="#AEBBBA" stroke-width="1.43407" stroke-miterlimit="1.5" stroke-linecap="round" stroke-linejoin="round"/>
<path d="M63.5869 213.905L95.3945 195.521" stroke="#AEBBBA" stroke-width="1.43407" stroke-miterlimit="1.5" stroke-linecap="round" stroke-linejoin="round"/>
<path d="M63.5869 220.789L95.3945 202.404" stroke="#AEBBBA" stroke-width="1.43407" stroke-miterlimit="1.5" stroke-linecap="round" stroke-linejoin="round"/>
<path d="M63.5869 227.672L95.3945 209.316" stroke="#AEBBBA" stroke-width="1.43407" stroke-miterlimit="1.5" stroke-linecap="round" stroke-linejoin="round"/>
<path d="M63.5869 200.167L95.3945 181.811" stroke="#AEBBBA" stroke-width="1.43407" stroke-miterlimit="1.5" stroke-linecap="round" stroke-linejoin="round"/>
<path d="M59.542 190.932L59.6567 234.384" stroke="#1F4B45" stroke-width="1.43407" stroke-miterlimit="1.5" stroke-linecap="round" stroke-linejoin="round"/>
<path d="M61.7215 233.208L47.6963 241.296" stroke="#1F4B45" stroke-width="1.43407" stroke-miterlimit="1.5" stroke-linecap="round" stroke-linejoin="round"/>
<path d="M99.2659 211.525L59.5996 234.413" stroke="#1F4B45" stroke-width="1.43407" stroke-miterlimit="1.5" stroke-linecap="round" stroke-linejoin="round"/>
<path d="M99.2656 211.525V175.96" stroke="#1F4B45" stroke-width="1.43407" stroke-miterlimit="1.5" stroke-linecap="round" stroke-linejoin="round"/>
<path d="M80.4799 183.36L63.6439 193.082L59.6572 190.788L99.3522 167.872L103.339 170.166L80.4799 183.36Z" stroke="#1F4B45" stroke-width="1.43407" stroke-miterlimit="1.5" stroke-linecap="round" stroke-linejoin="round"/>
<path d="M63.6431 193.083L61.6641 197.672L59.7998 196.582" stroke="#1F4B45" stroke-width="1.43407" stroke-miterlimit="1.5" stroke-linecap="round" stroke-linejoin="round"/>
<path d="M61.7227 197.643L101.36 174.755L103.483 170.252" stroke="#1F4B45" stroke-width="1.43407" stroke-miterlimit="1.5" stroke-linecap="round" stroke-linejoin="round"/>
<path d="M99.2656 211.525L108.3 206.305" stroke="#1F4B45" stroke-width="1.43407" stroke-miterlimit="1.5" stroke-linecap="round" stroke-linejoin="round"/>
<path d="M256.841 120.547L264.786 125.136L272.73 120.547" stroke="#1F4B45" stroke-width="1.43407" stroke-miterlimit="1.5" stroke-linecap="round" stroke-linejoin="round"/>
<path d="M272.73 120.547V114.811" stroke="#1F4B45" stroke-width="1.43407" stroke-miterlimit="1.5" stroke-linecap="round" stroke-linejoin="round"/>
<path d="M264.786 119.4V125.136" stroke="#1F4B45" stroke-width="1.43407" stroke-miterlimit="1.5" stroke-linecap="round" stroke-linejoin="round"/>
<path d="M256.841 114.811V120.547" stroke="#1F4B45" stroke-width="1.43407" stroke-miterlimit="1.5" stroke-linecap="round" stroke-linejoin="round"/>
<path d="M264.786 110.222L256.841 114.811L264.786 119.4L272.73 114.811L264.786 110.222Z" stroke="#1F4B45" stroke-width="1.43407" stroke-miterlimit="1.5" stroke-linecap="round" stroke-linejoin="round"/>
<path d="M260.8 117.106L268.745 112.517" stroke="#1F4B45" stroke-width="1.43407" stroke-miterlimit="1.5" stroke-linecap="round" stroke-linejoin="round"/>
<path d="M108.3 209.746L116.245 214.335L124.189 209.746" stroke="#1F4B45" stroke-width="1.43407" stroke-miterlimit="1.5" stroke-linecap="round" stroke-linejoin="round"/>
<path d="M116.245 199.421L108.3 204.01L116.245 208.599L124.189 204.01L116.245 199.421Z" stroke="#1F4B45" stroke-width="1.43407" stroke-miterlimit="1.5" stroke-linecap="round" stroke-linejoin="round"/>
<path d="M112.259 201.715L120.204 206.304" stroke="#1F4B45" stroke-width="1.43407" stroke-miterlimit="1.5" stroke-linecap="round" stroke-linejoin="round"/>
<path d="M124.189 209.747V204.011" stroke="#1F4B45" stroke-width="1.43407" stroke-miterlimit="1.5" stroke-linecap="round" stroke-linejoin="round"/>
<path d="M116.246 208.6V214.336" stroke="#1F4B45" stroke-width="1.43407" stroke-miterlimit="1.5" stroke-linecap="round" stroke-linejoin="round"/>
<path d="M108.3 204.011V209.747" stroke="#1F4B45" stroke-width="1.43407" stroke-miterlimit="1.5" stroke-linecap="round" stroke-linejoin="round"/>
<path d="M202.691 151.809V116.245" stroke="#1F4B45" stroke-width="1.43407" stroke-miterlimit="1.5" stroke-linecap="round" stroke-linejoin="round"/>
<path d="M47.6963 181.639V241.296L61.6067 249.327" stroke="#1F4B45" stroke-width="1.43407" stroke-miterlimit="1.5" stroke-linecap="round" stroke-linejoin="round"/>
<path d="M61.6074 249.327L125.194 212.615" stroke="#1F4B45" stroke-width="1.43407" stroke-miterlimit="1.5" stroke-linecap="round" stroke-linejoin="round"/>
<path d="M218.58 158.694L280.188 123.129" stroke="#1F4B45" stroke-width="1.43407" stroke-miterlimit="1.5" stroke-linecap="round" stroke-linejoin="round"/>
<path d="M125.193 212.614L129.18 214.909L164.946 194.258" stroke="#1F4B45" stroke-width="1.43407" stroke-miterlimit="1.5" stroke-linecap="round" stroke-linejoin="round"/>
<path d="M164.918 194.259L222.539 160.988L218.552 158.694" stroke="#1F4B45" stroke-width="1.43407" stroke-miterlimit="1.5" stroke-linecap="round" stroke-linejoin="round"/>
<path d="M280.188 123.129L273.247 119.114" stroke="#1F4B45" stroke-width="1.43407" stroke-miterlimit="1.5" stroke-linecap="round" stroke-linejoin="round"/>
<path d="M125.193 212.615V221.793" stroke="#1F4B45" stroke-width="1.43407" stroke-miterlimit="1.5" stroke-linecap="round" stroke-linejoin="round"/>
<path d="M125.193 217.204L133.54 222.022L184.793 192.452" stroke="#1F4B45" stroke-width="1.43407" stroke-miterlimit="1.5" stroke-linecap="round" stroke-linejoin="round"/>
<path d="M125.193 214.909L131.159 218.351L183.933 187.892" stroke="#1F4B45" stroke-width="1.43407" stroke-miterlimit="1.5" stroke-linecap="round" stroke-linejoin="round"/>
<path d="M184.793 192.452L226.926 168.13L222.538 165.606" stroke="#1F4B45" stroke-width="1.43407" stroke-miterlimit="1.5" stroke-linecap="round" stroke-linejoin="round"/>
<path d="M182.815 188.523L224.547 164.43L220.56 162.136" stroke="#1F4B45" stroke-width="1.43407" stroke-miterlimit="1.5" stroke-linecap="round" stroke-linejoin="round"/>
<path d="M61.6071 258.505L7.94434 227.529" stroke="#1F4B45" stroke-width="1.43407" stroke-miterlimit="1.5" stroke-linecap="round" stroke-linejoin="round"/>
<path d="M61.6074 249.327V258.505" stroke="#1F4B45" stroke-width="1.43407" stroke-miterlimit="1.5" stroke-linecap="round" stroke-linejoin="round"/>
</svg>
