<svg width="190" height="49" viewBox="0 0 190 49" fill="none" xmlns="http://www.w3.org/2000/svg">
<path fill-rule="evenodd" clip-rule="evenodd" d="M0 0C13.5399 17.0208 9.32805 25.211 11.2373 36.974C11.4819 38.4806 11.7137 39.7372 12.3366 41.1334C16.2344 49.873 24.8507 50.3067 31.494 46.6834C23.6245 43.0359 24.0952 28.4616 20.5512 19.2898C16.9355 9.93184 10.4997 3.18633 0 0Z" fill="#7B9848"/>
<path fill-rule="evenodd" clip-rule="evenodd" d="M44.0868 8.86846C44.0868 8.86846 37.754 13.6295 37.3659 24.412C37.3659 24.412 37.9484 33.0597 37.3659 36.1169C37.3659 36.1169 36.0072 44.221 32.6102 46.1136C32.6102 46.1136 28.194 44.7549 25.6221 35.5347C25.6221 35.5347 24.5719 29.8722 23.6318 26.8775C23.1259 25.2654 22.8474 25.0942 23.7986 23.4949C29.1229 14.544 35.9706 9.90862 44.0868 8.86846Z" fill="#7B9848"/>
<path fill-rule="evenodd" clip-rule="evenodd" d="M11.0068 17.4717C16.6991 27.8024 8.00067 42.845 23.1686 46.8304C23.1686 46.8304 16.9747 46.5577 13.8469 42.1068C12.7853 40.3458 12.5899 39.2456 12.2619 37.2566C11.615 31.357 12.2101 22.6949 11.0068 17.4717Z" fill="#A7C144"/>
<path fill-rule="evenodd" clip-rule="evenodd" d="M32.2979 43.2632C32.2979 43.2632 36.4228 40.5458 35.986 31.5681C35.986 31.5681 35.1776 23.3184 36.0185 19.7273C36.0185 19.7273 34.492 20.2003 34.3653 27.1033C34.3339 28.825 34.4524 30.4503 34.4862 32.1507C34.5406 34.8717 34.3413 40.061 32.2979 43.2632Z" fill="#A7C144"/>
<path fill-rule="evenodd" clip-rule="evenodd" d="M72.2075 19.6916C72.2075 20.4029 71.8094 20.7608 71.0076 20.7608H63.4425V33.6304C63.4425 34.3369 63.0496 34.6903 62.2586 34.6903C61.4623 34.6903 60.9645 34.6627 60.7707 34.6076C60.2886 34.4837 60.0477 34.1533 60.0477 33.6258V20.7608H52.5402C51.7336 20.7608 51.3301 20.4029 51.3301 19.6916C51.3301 19.2053 51.3929 18.8703 51.5134 18.6914C51.6759 18.4391 52.0217 18.3107 52.5402 18.3107H71.0076C71.8094 18.3107 72.2075 18.7695 72.2075 19.6916Z" fill="#606062"/>
<path fill-rule="evenodd" clip-rule="evenodd" d="M87.2218 22.9457C82.3367 26.5721 76.893 30.6032 71.7481 34.4174C71.2468 34.7912 70.75 34.9779 70.2497 34.9779C69.7425 34.9779 69.1892 34.5125 68.7634 34.3218C68.278 34.1144 68.0627 33.8707 68.1099 33.5944C68.1251 33.5051 68.1793 33.4278 68.2753 33.3547L84.7349 20.5685C86.248 19.3883 88.2402 19.4232 89.709 20.5685L106.169 33.3547C106.265 33.4278 106.319 33.5051 106.334 33.5944C106.381 33.8707 106.166 34.1144 105.681 34.3218C105.255 34.5125 104.701 34.9779 104.194 34.9779C103.694 34.9779 103.197 34.7912 102.696 34.4174C97.5512 30.6032 92.1084 26.57 87.2218 22.9457Z" fill="#606062"/>
<path fill-rule="evenodd" clip-rule="evenodd" d="M113.657 22.9451C110.424 25.3451 107.371 27.6077 103.897 30.1821L101.355 28.2073L111.17 20.5679C112.684 19.3879 114.676 19.4226 116.144 20.5679L132.605 33.3542C132.7 33.4274 132.755 33.5046 132.769 33.5937C132.817 33.8699 132.601 34.1143 132.116 34.3211C131.69 34.512 131.137 34.9776 130.63 34.9776C130.129 34.9776 129.633 34.7906 129.131 34.417C123.987 30.6029 118.544 26.5694 113.657 22.9451ZM99.689 33.3127L98.1836 34.417C97.6824 34.7906 97.1854 34.9776 96.6851 34.9776C96.178 34.9776 95.6251 34.512 95.1991 34.3211C94.7136 34.1143 94.4982 33.8699 94.5454 33.5937C94.5608 33.5046 94.6148 33.4274 94.7108 33.3542L97.169 31.4449L99.689 33.3127Z" fill="#7C9A45"/>
<path fill-rule="evenodd" clip-rule="evenodd" d="M156.133 30.7741C156.133 31.6549 155.976 32.3433 155.656 32.8342C154.808 34.1694 152.241 34.8393 147.955 34.8393H136.157C135.371 34.8393 134.978 34.486 134.978 33.7794C134.978 33.2976 135.041 32.9626 135.161 32.7792C135.334 32.5176 135.669 32.3891 136.162 32.3891H147.966C151.146 32.3891 152.738 31.8707 152.738 30.8338V29.4115C152.738 28.4019 151.198 27.8513 148.123 27.7596L142.464 27.5991C142.197 27.5899 141.82 27.576 141.333 27.5532C140.851 27.5347 140.253 27.5028 139.546 27.4615C138.32 27.3375 137.267 26.9842 136.387 26.4016C135.428 25.7545 134.946 24.9104 134.946 23.8598V22.6254C134.946 20.7167 136.147 19.4394 138.561 18.8493C139.714 18.5678 151.888 18.4593 154.968 18.4593C155.765 18.4593 156.163 18.9182 156.163 19.8313C156.163 20.3634 155.923 20.6811 155.445 20.8269C155.367 20.8505 144.832 20.8819 143.931 20.8819C140.206 20.8819 138.341 21.4555 138.341 22.6025V23.7405C138.341 24.4469 139.038 24.9104 140.426 25.1261C140.694 25.1674 141.081 25.2041 141.584 25.2269C142.093 25.25 142.711 25.2591 143.449 25.2591H148.002C150.182 25.2591 151.9 25.5068 153.158 25.9979C155.143 26.7182 156.133 27.8194 156.133 29.3104V30.7741Z" fill="#606062"/>
<path fill-rule="evenodd" clip-rule="evenodd" d="M182.513 33.6258C182.513 34.3369 182.105 34.6903 181.293 34.6903C180.512 34.6903 180.025 34.6627 179.826 34.6076C179.354 34.4929 179.118 34.1625 179.118 33.6258V27.808H162.615V33.6304C162.615 34.3369 162.217 34.6903 161.421 34.6903C161.075 34.6903 160.782 34.6811 160.536 34.6673C160.289 34.6488 160.096 34.6306 159.954 34.6076C159.467 34.4745 159.221 34.1443 159.221 33.6166V19.375C159.221 18.8429 159.462 18.5171 159.938 18.3932C160.054 18.3702 160.232 18.352 160.473 18.3335C160.719 18.3199 161.033 18.3107 161.421 18.3107C162.217 18.3107 162.615 18.6593 162.615 19.3614V25.3579H179.118V19.3614C179.118 18.8521 179.359 18.5263 179.841 18.3932C180.04 18.3382 180.523 18.3107 181.293 18.3107C182.105 18.3107 182.513 18.6593 182.513 19.3614V33.6258Z" fill="#606062"/>
<path fill-rule="evenodd" clip-rule="evenodd" d="M189.369 33.6258C189.369 34.3369 188.971 34.6903 188.175 34.6903C187.829 34.6903 187.536 34.6811 187.29 34.6673C187.043 34.6488 186.85 34.6306 186.708 34.6076C186.221 34.4745 185.975 34.1443 185.975 33.6166V19.375C185.975 18.8429 186.216 18.5171 186.692 18.3932C186.808 18.3702 186.986 18.352 187.227 18.3335C187.473 18.3199 187.787 18.3107 188.175 18.3107C188.971 18.3107 189.369 18.6593 189.369 19.3614V33.6258Z" fill="#606062"/>
<path fill-rule="evenodd" clip-rule="evenodd" d="M190.001 15.5843C190.001 16.1762 189.751 16.6405 189.252 16.983C188.822 17.2732 188.294 17.4241 187.673 17.4241C187.052 17.4241 186.524 17.2732 186.094 16.983C185.595 16.6405 185.346 16.1762 185.346 15.5843C185.346 14.998 185.595 14.5337 186.094 14.1912C186.524 13.8951 187.052 13.7501 187.673 13.7501C188.294 13.7501 188.822 13.8951 189.252 14.1912C189.751 14.5337 190.001 14.998 190.001 15.5843Z" fill="#606062"/>
</svg>
