<svg width="287" height="287" viewBox="0 0 287 287" fill="none" xmlns="http://www.w3.org/2000/svg">
<path d="M280.188 111.657L61.6074 237.855" stroke="#1F4B45" stroke-width="1.43407" stroke-miterlimit="1.5" stroke-linecap="round" stroke-linejoin="round"/>
<path d="M280.189 111.657L272.244 107.068L263.296 112.231" stroke="#1F4B45" stroke-width="1.43407" stroke-miterlimit="1.5" stroke-linecap="round" stroke-linejoin="round"/>
<path d="M61.6073 237.854L53.6626 233.265L62.6112 228.103L24.8665 206.305L15.918 211.467" stroke="#1F4B45" stroke-width="1.43407" stroke-miterlimit="1.5" stroke-linecap="round" stroke-linejoin="round"/>
<path d="M7.94531 206.878L24.8386 197.126" stroke="#1F4B45" stroke-width="1.43407" stroke-miterlimit="1.5" stroke-linecap="round" stroke-linejoin="round"/>
<path d="M131.16 202.29H139.105L202.691 165.578L210.636 156.4" stroke="#1F4B45" stroke-width="1.43407" stroke-miterlimit="1.5" stroke-linecap="round" stroke-linejoin="round"/>
<path d="M61.6074 237.854L73.5389 235.56L131.16 202.29" stroke="#1F4B45" stroke-width="1.43407" stroke-miterlimit="1.5" stroke-linecap="round" stroke-linejoin="round"/>
<path d="M210.636 156.4L268.257 123.129L280.188 111.657" stroke="#1F4B45" stroke-width="1.43407" stroke-miterlimit="1.5" stroke-linecap="round" stroke-linejoin="round"/>
<path d="M61.6074 244.766L24.8379 223.542" stroke="#1F4B45" stroke-width="1.43407" stroke-miterlimit="1.5" stroke-linecap="round" stroke-linejoin="round"/>
<path d="M242.416 154.105L254.347 147.221" stroke="#1F4B45" stroke-width="1.43407" stroke-miterlimit="1.5" stroke-linecap="round" stroke-linejoin="round"/>
<path d="M268.256 139.19L280.187 132.307" stroke="#1F4B45" stroke-width="1.43407" stroke-miterlimit="1.5" stroke-linecap="round" stroke-linejoin="round"/>
<path d="M190.76 183.933L202.691 177.05" stroke="#1F4B45" stroke-width="1.43407" stroke-miterlimit="1.5" stroke-linecap="round" stroke-linejoin="round"/>
<path d="M164.918 198.848L176.849 191.964" stroke="#1F4B45" stroke-width="1.43407" stroke-miterlimit="1.5" stroke-linecap="round" stroke-linejoin="round"/>
<path d="M164.918 198.848L159.956 195.98" stroke="#1F4B45" stroke-width="1.43407" stroke-miterlimit="1.5" stroke-linecap="round" stroke-linejoin="round"/>
<path d="M190.76 183.933L184.794 180.492" stroke="#1F4B45" stroke-width="1.43407" stroke-miterlimit="1.5" stroke-linecap="round" stroke-linejoin="round"/>
<path d="M139.104 213.762L151.036 206.878" stroke="#1F4B45" stroke-width="1.43407" stroke-miterlimit="1.5" stroke-linecap="round" stroke-linejoin="round"/>
<path d="M113.264 228.676L125.195 221.792" stroke="#1F4B45" stroke-width="1.43407" stroke-miterlimit="1.5" stroke-linecap="round" stroke-linejoin="round"/>
<path d="M113.263 228.677L107.297 225.235" stroke="#1F4B45" stroke-width="1.43407" stroke-miterlimit="1.5" stroke-linecap="round" stroke-linejoin="round"/>
<path d="M87.4209 243.591L99.3523 236.707" stroke="#1F4B45" stroke-width="1.43407" stroke-miterlimit="1.5" stroke-linecap="round" stroke-linejoin="round"/>
<path d="M81.4834 240.149L87.4491 243.591" stroke="#1F4B45" stroke-width="1.43407" stroke-miterlimit="1.5" stroke-linecap="round" stroke-linejoin="round"/>
<path d="M61.6074 258.504L73.5389 251.621" stroke="#1F4B45" stroke-width="1.43407" stroke-miterlimit="1.5" stroke-linecap="round" stroke-linejoin="round"/>
<path d="M73.5106 251.621L67.5449 248.179" stroke="#1F4B45" stroke-width="1.43407" stroke-miterlimit="1.5" stroke-linecap="round" stroke-linejoin="round"/>
<path d="M99.3524 236.707L93.3867 233.266" stroke="#1F4B45" stroke-width="1.43407" stroke-miterlimit="1.5" stroke-linecap="round" stroke-linejoin="round"/>
<path d="M125.194 221.793L119.229 218.351" stroke="#1F4B45" stroke-width="1.43407" stroke-miterlimit="1.5" stroke-linecap="round" stroke-linejoin="round"/>
<path d="M151.008 206.879L145.042 203.437" stroke="#1F4B45" stroke-width="1.43407" stroke-miterlimit="1.5" stroke-linecap="round" stroke-linejoin="round"/>
<path d="M176.85 191.964L170.884 188.522" stroke="#1F4B45" stroke-width="1.43407" stroke-miterlimit="1.5" stroke-linecap="round" stroke-linejoin="round"/>
<path d="M202.69 177.05L196.725 173.608" stroke="#1F4B45" stroke-width="1.43407" stroke-miterlimit="1.5" stroke-linecap="round" stroke-linejoin="round"/>
<path d="M228.505 162.135L222.539 158.693" stroke="#1F4B45" stroke-width="1.43407" stroke-miterlimit="1.5" stroke-linecap="round" stroke-linejoin="round"/>
<path d="M254.347 147.221L248.381 143.779" stroke="#1F4B45" stroke-width="1.43407" stroke-miterlimit="1.5" stroke-linecap="round" stroke-linejoin="round"/>
<path d="M280.189 132.307L274.224 128.865" stroke="#1F4B45" stroke-width="1.43407" stroke-miterlimit="1.5" stroke-linecap="round" stroke-linejoin="round"/>
<path d="M7.94531 227.529L61.6081 258.505" stroke="#1F4B45" stroke-width="1.43407" stroke-miterlimit="1.5" stroke-linecap="round" stroke-linejoin="round"/>
<path d="M7.94531 227.529L11.932 225.235" stroke="#1F4B45" stroke-width="1.43407" stroke-miterlimit="1.5" stroke-linecap="round" stroke-linejoin="round"/>
<path d="M216.602 169.019L228.533 162.135" stroke="#1F4B45" stroke-width="1.43407" stroke-miterlimit="1.5" stroke-linecap="round" stroke-linejoin="round"/>
<path d="M70.5566 176.476V228.103L166.926 172.461" stroke="#1F4B45" stroke-width="1.43407" stroke-miterlimit="1.5" stroke-linecap="round" stroke-linejoin="round"/>
<path d="M255.351 75.5176L175.875 121.408V162.709L255.351 116.819V75.5176Z" stroke="#AEBBBA" stroke-width="1.43407" stroke-miterlimit="1.5" stroke-linecap="round" stroke-linejoin="round"/>
<path d="M157.977 131.733L78.501 177.624V218.925L157.977 173.035V131.733Z" stroke="#AEBBBA" stroke-width="1.43407" stroke-miterlimit="1.5" stroke-linecap="round" stroke-linejoin="round"/>
<path d="M195.722 109.936V151.237" stroke="#AEBBBA" stroke-width="1.43407" stroke-miterlimit="1.5" stroke-linecap="round" stroke-linejoin="round"/>
<path d="M98.3477 166.151V207.453" stroke="#AEBBBA" stroke-width="1.43407" stroke-miterlimit="1.5" stroke-linecap="round" stroke-linejoin="round"/>
<path d="M215.598 98.4634V139.765" stroke="#AEBBBA" stroke-width="1.43407" stroke-miterlimit="1.5" stroke-linecap="round" stroke-linejoin="round"/>
<path d="M118.225 154.678V195.979" stroke="#AEBBBA" stroke-width="1.43407" stroke-miterlimit="1.5" stroke-linecap="round" stroke-linejoin="round"/>
<path d="M235.475 86.9902V128.291" stroke="#AEBBBA" stroke-width="1.43407" stroke-miterlimit="1.5" stroke-linecap="round" stroke-linejoin="round"/>
<path d="M138.102 143.206V184.507" stroke="#AEBBBA" stroke-width="1.43407" stroke-miterlimit="1.5" stroke-linecap="round" stroke-linejoin="round"/>
<path d="M255.35 75.5176V116.819" stroke="#AEBBBA" stroke-width="1.43407" stroke-miterlimit="1.5" stroke-linecap="round" stroke-linejoin="round"/>
<path d="M157.977 131.733V173.035" stroke="#AEBBBA" stroke-width="1.43407" stroke-miterlimit="1.5" stroke-linecap="round" stroke-linejoin="round"/>
<path d="M166.926 120.834L70.5566 176.476" stroke="#1F4B45" stroke-width="1.43407" stroke-miterlimit="1.5" stroke-linecap="round" stroke-linejoin="round"/>
<path d="M166.925 120.834V172.461L263.294 116.819V65.1924" stroke="#1F4B45" stroke-width="1.43407" stroke-miterlimit="1.5" stroke-linecap="round" stroke-linejoin="round"/>
<path d="M263.294 65.1924L166.925 120.834" stroke="#1F4B45" stroke-width="1.43407" stroke-miterlimit="1.5" stroke-linecap="round" stroke-linejoin="round"/>
<path d="M121.207 94.4482L24.8379 150.09" stroke="#1F4B45" stroke-width="1.43407" stroke-miterlimit="1.5" stroke-linecap="round" stroke-linejoin="round"/>
<path d="M24.8379 150.089V201.715" stroke="#1F4B45" stroke-width="1.43407" stroke-miterlimit="1.5" stroke-linecap="round" stroke-linejoin="round"/>
<path d="M217.576 38.8062L121.207 94.448" stroke="#1F4B45" stroke-width="1.43407" stroke-miterlimit="1.5" stroke-linecap="round" stroke-linejoin="round"/>
<path d="M70.5566 176.476L24.8672 150.089" stroke="#1F4B45" stroke-width="1.43407" stroke-miterlimit="1.5" stroke-linecap="round" stroke-linejoin="round"/>
<path d="M47.6982 163.282V214.909" stroke="#1F4B45" stroke-width="1.43407" stroke-miterlimit="1.5" stroke-linecap="round" stroke-linejoin="round"/>
<path d="M70.5566 228.103L24.8672 201.716" stroke="#1F4B45" stroke-width="1.43407" stroke-miterlimit="1.5" stroke-linecap="round" stroke-linejoin="round"/>
<path d="M263.295 65.193L217.605 38.8062" stroke="#1F4B45" stroke-width="1.43407" stroke-miterlimit="1.5" stroke-linecap="round" stroke-linejoin="round"/>
<path d="M121.207 94.4482L166.896 120.835" stroke="#1F4B45" stroke-width="1.43407" stroke-miterlimit="1.5" stroke-linecap="round" stroke-linejoin="round"/>
<path d="M57.6206 250.56C57.6206 249.815 57.219 249.126 56.5593 248.725C56.1578 248.495 55.6702 248.495 55.2687 248.725C54.8671 248.954 54.6377 249.384 54.6377 249.843V252.195L57.6206 253.916V250.56Z" stroke="#1F4B45" stroke-width="1.43407" stroke-miterlimit="1.5" stroke-linecap="round" stroke-linejoin="round"/>
<path d="M14.9131 229.25L39.4643 215.082" stroke="#1F4B45" stroke-width="1.43407" stroke-miterlimit="1.5" stroke-linecap="round" stroke-linejoin="round"/>
<path d="M14.9145 225.98C14.9145 225.177 14.4843 224.402 13.7672 224.001C13.3944 223.771 12.9068 223.771 12.5339 224.001C12.1611 224.23 11.9316 224.632 11.9316 225.062C11.9316 226.267 11.9316 227.529 11.9316 227.529L14.9145 229.249V225.98Z" stroke="#1F4B45" stroke-width="1.43407" stroke-miterlimit="1.5" stroke-linecap="round" stroke-linejoin="round"/>
<path d="M29.0542 214.479L12.6484 223.944" stroke="#1F4B45" stroke-width="1.43407" stroke-miterlimit="1.5" stroke-linecap="round" stroke-linejoin="round"/>
<path d="M216.601 169.019L210.636 165.578" stroke="#1F4B45" stroke-width="1.43407" stroke-miterlimit="1.5" stroke-linecap="round" stroke-linejoin="round"/>
<path d="M242.414 154.105L236.448 150.663" stroke="#1F4B45" stroke-width="1.43407" stroke-miterlimit="1.5" stroke-linecap="round" stroke-linejoin="round"/>
<path d="M268.257 139.19L262.291 135.749" stroke="#1F4B45" stroke-width="1.43407" stroke-miterlimit="1.5" stroke-linecap="round" stroke-linejoin="round"/>
<path d="M86.7324 231.716C85.4704 235.617 82.717 239.432 79.476 241.296C75.0877 243.82 71.5312 241.783 71.5312 236.707C71.5312 236.592 71.5312 236.449 71.5312 236.334" stroke="#1F4B45" stroke-width="1.43407" stroke-miterlimit="1.5" stroke-linecap="round" stroke-linejoin="round"/>
<path d="M38.7489 214.966C38.4048 215.483 37.0854 216.429 36.7699 216.63C32.3817 219.154 28.8252 217.117 28.8252 212.041C28.8252 211.926 28.8252 209.058 28.8252 208.915" stroke="#1F4B45" stroke-width="1.43407" stroke-miterlimit="1.5" stroke-linecap="round" stroke-linejoin="round"/>
<path d="M27.1897 215.11C26.0711 213.934 25.6982 211.984 25.6982 210.234C25.6982 210.119 25.7269 207.251 25.7269 207.108" stroke="#1F4B45" stroke-width="1.43407" stroke-miterlimit="1.5" stroke-linecap="round" stroke-linejoin="round"/>
<path d="M237.797 144.554C236.535 148.426 233.782 152.212 230.57 154.048C226.181 156.572 222.625 154.535 222.625 149.459" stroke="#1F4B45" stroke-width="1.43407" stroke-miterlimit="1.5" stroke-linecap="round" stroke-linejoin="round"/>
<path d="M119.143 209.23C119.143 214.307 115.586 220.473 111.198 222.997C108.014 224.833 105.261 224.259 103.999 221.85" stroke="#1F4B45" stroke-width="1.43407" stroke-miterlimit="1.5" stroke-linecap="round" stroke-linejoin="round"/>
<path d="M270.235 121.637V121.981C270.235 127.058 266.678 133.224 262.29 135.748C259.078 137.613 256.324 137.01 255.062 134.572" stroke="#1F4B45" stroke-width="1.43407" stroke-miterlimit="1.5" stroke-linecap="round" stroke-linejoin="round"/>
<path d="M71.8463 239.203L55.3545 248.725" stroke="#1F4B45" stroke-width="1.43407" stroke-miterlimit="1.5" stroke-linecap="round" stroke-linejoin="round"/>
<path d="M270.665 123.875C270.665 123.875 274.451 121.695 276.43 120.548C277.176 120.118 278.065 120.032 278.897 120.347C279.671 120.634 280.159 121.38 280.159 122.212V125.424L57.5918 253.916" stroke="#1F4B45" stroke-width="1.43407" stroke-miterlimit="1.5" stroke-linecap="round" stroke-linejoin="round"/>
<path d="M89.4297 232.118L101.361 225.235" stroke="#1F4B45" stroke-width="1.43407" stroke-miterlimit="1.5" stroke-linecap="round" stroke-linejoin="round"/>
<path d="M101.331 225.234L107.297 216.056" stroke="#1F4B45" stroke-width="1.43407" stroke-miterlimit="1.5" stroke-linecap="round" stroke-linejoin="round"/>
<path d="M89.4296 232.118L83.4639 229.824" stroke="#1F4B45" stroke-width="1.43407" stroke-miterlimit="1.5" stroke-linecap="round" stroke-linejoin="round"/>
<path d="M252.366 138.043L258.332 128.865" stroke="#1F4B45" stroke-width="1.43407" stroke-miterlimit="1.5" stroke-linecap="round" stroke-linejoin="round"/>
<path d="M240.436 144.927L234.471 142.632" stroke="#1F4B45" stroke-width="1.43407" stroke-miterlimit="1.5" stroke-linecap="round" stroke-linejoin="round"/>
<path d="M240.436 144.926L252.367 138.043" stroke="#1F4B45" stroke-width="1.43407" stroke-miterlimit="1.5" stroke-linecap="round" stroke-linejoin="round"/>
<path d="M56.6469 214.909C58.5685 216.028 60.6909 217.232 62.6126 218.351L64.5916 219.498C65.1365 219.814 65.6241 220.1 65.9683 220.301C66.083 220.387 66.2551 220.272 66.3698 220.072C66.4846 219.842 66.5706 219.527 66.5706 219.24C66.5706 218.007 66.5706 216.257 66.5706 215.052C66.5706 214.249 66.3698 213.618 65.997 213.418C65.6528 213.217 65.1365 212.93 64.5629 212.586L62.5839 211.439C60.6622 210.32 58.5398 209.115 56.6182 207.997L54.6392 206.85C54.0942 206.534 53.6066 206.247 53.2625 206.046C53.1477 205.96 52.9757 206.075 52.8609 206.276C52.7462 206.505 52.6602 206.821 52.6602 207.108C52.6602 208.341 52.6602 210.091 52.6602 211.295C52.6602 212.098 52.8609 212.729 53.2338 212.93C53.578 213.131 54.0942 213.418 54.6679 213.762L56.6469 214.909Z" stroke="#AEBBBA" stroke-width="1.43407" stroke-miterlimit="1.5" stroke-linecap="round" stroke-linejoin="round"/>
<path d="M56.6469 198.647C58.5685 199.766 60.6909 200.97 62.6126 202.089L64.5916 203.236C65.1365 203.552 65.6241 203.839 65.9683 204.039C66.083 204.125 66.2551 204.011 66.3698 203.81C66.4846 203.58 66.5706 203.265 66.5706 202.978C66.5706 201.745 66.5706 199.995 66.5706 198.791C66.5706 197.988 66.3698 197.357 65.997 197.156C65.6528 196.955 65.1365 196.668 64.5629 196.324L62.5839 195.177C60.6622 194.058 58.5398 192.854 56.6182 191.735L54.6392 190.588C54.0942 190.272 53.6066 189.986 53.2625 189.785C53.1477 189.699 52.9757 189.813 52.8609 190.014C52.7462 190.244 52.6602 190.559 52.6602 190.846C52.6602 192.079 52.6602 193.829 52.6602 195.033C52.6602 195.837 52.8609 196.468 53.2338 196.64C53.578 196.84 54.0942 197.127 54.6679 197.471L56.6469 198.647Z" stroke="#AEBBBA" stroke-width="1.43407" stroke-miterlimit="1.5" stroke-linecap="round" stroke-linejoin="round"/>
<path d="M56.6469 181.639C58.5685 182.758 60.6909 183.962 62.6126 185.081L64.5916 186.228C65.1365 186.543 65.6241 186.83 65.9683 187.031C66.083 187.117 66.2551 187.002 66.3698 186.802C66.4846 186.572 66.5706 186.257 66.5706 185.97C66.5706 184.737 66.5706 182.987 66.5706 181.782C66.5706 180.979 66.3698 180.377 65.997 180.148C65.6528 179.947 65.1365 179.66 64.5629 179.316L62.5839 178.169C60.6622 177.05 58.5398 175.845 56.6182 174.727L54.6392 173.58C54.0942 173.264 53.6066 172.977 53.2625 172.776C53.1477 172.69 52.9757 172.805 52.8609 173.006C52.7462 173.235 52.6602 173.551 52.6602 173.838C52.6602 175.071 52.6602 176.821 52.6602 178.025C52.6602 178.828 52.8609 179.431 53.2338 179.66C53.578 179.861 54.0942 180.148 54.6679 180.492L56.6469 181.639Z" stroke="#AEBBBA" stroke-width="1.43407" stroke-miterlimit="1.5" stroke-linecap="round" stroke-linejoin="round"/>
<path d="M55.6426 216.631V171.888" stroke="#1F4B45" stroke-width="1.43407" stroke-miterlimit="1.5" stroke-linecap="round" stroke-linejoin="round"/>
<path d="M63.5859 221.218V176.476" stroke="#1F4B45" stroke-width="1.43407" stroke-miterlimit="1.5" stroke-linecap="round" stroke-linejoin="round"/>
<path d="M38.7489 197.7C36.8273 196.582 34.7049 195.377 32.7832 194.259L30.8042 193.111C30.2593 192.796 29.7717 192.509 29.4275 192.308C29.3128 192.222 29.1407 192.337 29.026 192.538C28.9112 192.767 28.8252 193.083 28.8252 193.369C28.8252 194.603 28.8252 196.352 28.8252 197.557C28.8252 198.36 29.026 198.991 29.3988 199.192C29.743 199.392 30.2593 199.679 30.8329 200.023L32.8119 201.171C34.7336 202.289 36.856 203.494 38.7776 204.613L40.7566 205.76C41.3016 206.075 41.7892 206.362 42.1333 206.563C42.2481 206.649 42.4202 206.534 42.5349 206.333C42.6496 206.104 42.7356 205.788 42.7356 205.502C42.7356 204.268 42.7356 202.519 42.7356 201.314C42.7356 200.511 42.5349 199.88 42.162 199.679C41.8178 199.479 41.3016 199.192 40.728 198.848L38.7489 197.7Z" stroke="#AEBBBA" stroke-width="1.43407" stroke-miterlimit="1.5" stroke-linecap="round" stroke-linejoin="round"/>
<path d="M32.7836 184.88C34.7052 185.998 36.8277 187.203 38.7493 188.321L40.7283 189.469C41.2733 189.784 41.7608 190.071 42.105 190.272C42.2197 190.358 42.3918 190.243 42.5066 190.042C42.6213 189.813 42.7073 189.497 42.7073 189.211C42.7073 187.977 42.7073 186.228 42.7073 185.023C42.7073 184.22 42.5066 183.589 42.1337 183.388C41.7895 183.188 41.2733 182.901 40.6996 182.557L38.7206 181.409C36.799 180.291 34.6765 179.086 32.7549 177.968L30.7759 176.82C30.2309 176.505 29.7434 176.218 29.3992 176.017C29.2845 175.931 29.1124 176.046 28.9976 176.247C28.8829 176.476 28.7969 176.792 28.7969 177.078C28.7969 178.312 28.7969 180.061 28.7969 181.266C28.7969 182.069 28.9976 182.7 29.3705 182.872C29.7147 183.073 30.2309 183.36 30.8046 183.704L32.7836 184.88Z" stroke="#AEBBBA" stroke-width="1.43407" stroke-miterlimit="1.5" stroke-linecap="round" stroke-linejoin="round"/>
<path d="M30.8042 159.841C30.2593 159.526 29.7717 159.239 29.4275 159.038C29.3128 158.952 29.1407 159.067 29.026 159.268C28.9112 159.497 28.8252 159.813 28.8252 160.099C28.8252 161.333 28.8252 163.082 28.8252 164.287C28.8252 165.09 29.026 165.721 29.3988 165.922C29.743 166.122 30.2593 166.409 30.8329 166.753L32.8119 167.901C34.7336 169.019 36.856 170.224 38.7776 171.342L40.7566 172.49C41.3016 172.805 41.7892 173.092 42.1333 173.293C42.2481 173.379 42.4202 173.264 42.5349 173.063C42.6496 172.834 42.7356 172.518 42.7356 172.232C42.7356 170.998 42.7356 169.249 42.7356 168.044C42.7356 167.241 42.5349 166.61 42.162 166.409C41.8178 166.209 41.3016 165.922 40.728 165.578L38.7489 164.43C36.8273 163.312 34.7049 162.107 32.7832 160.989L30.8042 159.841Z" stroke="#AEBBBA" stroke-width="1.43407" stroke-miterlimit="1.5" stroke-linecap="round" stroke-linejoin="round"/>
<path d="M31.7793 202.864V158.121" stroke="#1F4B45" stroke-width="1.43407" stroke-miterlimit="1.5" stroke-linecap="round" stroke-linejoin="round"/>
<path d="M39.7529 207.452V162.709" stroke="#1F4B45" stroke-width="1.43407" stroke-miterlimit="1.5" stroke-linecap="round" stroke-linejoin="round"/>
<path d="M139.104 213.762L133.139 210.32" stroke="#1F4B45" stroke-width="1.43407" stroke-miterlimit="1.5" stroke-linecap="round" stroke-linejoin="round"/>
<path d="M15.89 211.467L7.94531 206.878" stroke="#1F4B45" stroke-width="1.43407" stroke-miterlimit="1.5" stroke-linecap="round" stroke-linejoin="round"/>
</svg>
