<svg width="287" height="287" viewBox="0 0 287 287" fill="none" xmlns="http://www.w3.org/2000/svg">
<path d="M75.662 243.504C75.662 243.504 67.4592 248.237 63.5872 250.474C62.3539 251.191 60.8338 251.191 59.6291 250.474C59.6291 250.474 20.1063 227.672 9.09262 221.276C7.40042 220.301 6.5113 218.351 6.85548 216.429C7.2857 214.106 7.80196 211.353 7.80196 211.353" stroke="#1F4B45" stroke-width="1.43407" stroke-miterlimit="1.5" stroke-linecap="round" stroke-linejoin="round"/>
<path d="M16.8926 215.483L52.1706 235.847" stroke="#1F4B45" stroke-width="1.43407" stroke-miterlimit="1.5" stroke-linecap="round" stroke-linejoin="round"/>
<path d="M70.0674 236.42L76.9509 232.462" stroke="#1F4B45" stroke-width="1.43407" stroke-miterlimit="1.5" stroke-linecap="round" stroke-linejoin="round"/>
<path d="M7.94531 204.584V189.182C7.94531 186.572 8.06004 183.962 8.26081 181.352C8.83443 173.895 10.498 160.644 14.9149 154.678" stroke="#1F4B45" stroke-width="1.43407" stroke-miterlimit="1.5" stroke-linecap="round" stroke-linejoin="round"/>
<path d="M61.6074 236.162V219.785C61.6074 216.974 61.7221 214.164 61.9516 211.353C62.5826 203.953 64.2461 191.477 68.5483 185.654" stroke="#1F4B45" stroke-width="1.43407" stroke-miterlimit="1.5" stroke-linecap="round" stroke-linejoin="round"/>
<path d="M14.9141 154.678L41.3869 139.391C41.3869 139.391 40.125 134.573 46.8077 130.615C53.4905 126.657 57.7353 124.305 57.7353 124.305" stroke="#1F4B45" stroke-width="1.43407" stroke-miterlimit="1.5" stroke-linecap="round" stroke-linejoin="round"/>
<path d="M68.5488 185.654L94.907 170.338C94.907 170.338 94.6202 166.122 101.332 162.135C108.014 158.177 112.804 156.141 112.804 156.141" stroke="#1F4B45" stroke-width="1.43407" stroke-miterlimit="1.5" stroke-linecap="round" stroke-linejoin="round"/>
<path d="M112.804 156.141L57.6211 124.276" stroke="#1F4B45" stroke-width="1.43407" stroke-miterlimit="1.5" stroke-linecap="round" stroke-linejoin="round"/>
<path d="M112.804 156.141C112.804 156.141 115.759 164.487 110.194 173.292" stroke="#1F4B45" stroke-width="1.43407" stroke-miterlimit="1.5" stroke-linecap="round" stroke-linejoin="round"/>
<path d="M41.3584 139.42C41.3584 139.42 46.9513 144.611 52.3147 149.544C58.6532 155.395 66.1104 159.956 74.2559 162.91C83.606 166.323 94.8778 170.424 94.8778 170.424" stroke="#1F4B45" stroke-width="1.43407" stroke-miterlimit="1.5" stroke-linecap="round" stroke-linejoin="round"/>
<path d="M94.8779 170.367C94.8779 170.367 104.199 166.381 108.645 166.352C108.645 166.352 111.284 174.641 111.284 188.523V212.615L106.322 215.483V190.616C106.322 186.027 105.232 179.373 103.999 174.383C103.282 171.572 102.536 169.278 101.876 168.188" stroke="#1F4B45" stroke-width="1.43407" stroke-miterlimit="1.5" stroke-linecap="round" stroke-linejoin="round"/>
<path d="M65.9383 184.163C61.3206 190.358 59.0835 203.035 58.1657 210.034C58.0223 211.21 57.9076 212.213 57.8215 213.016C57.7068 214.192 57.6494 215.368 57.6494 216.544C57.6494 217.147 57.3339 217.72 56.789 218.036C56.244 218.351 55.6131 218.351 55.0681 218.036C46.8079 213.275 21.1094 198.418 13.3368 193.943C11.96 193.14 11.0996 191.649 11.0996 190.071V189.297C11.0996 188.351 11.1283 187.404 11.157 186.458C11.3577 182.672 12.0461 173.092 13.8817 165.664" stroke="#AEBBBA" stroke-width="1.43407" stroke-miterlimit="1.5" stroke-linecap="round" stroke-linejoin="round"/>
<path d="M52.1424 156.686C51.2533 156.17 50.1347 156.17 49.2456 156.686C47.3813 157.776 44.1116 159.64 42.2473 160.73C41.9319 160.902 41.7598 161.218 41.7598 161.591C41.7598 161.935 41.9319 162.25 42.2473 162.451C45.2876 164.201 52.1998 168.187 55.2113 169.937C56.1004 170.453 57.219 170.453 58.1081 169.937C59.9724 168.847 63.2421 166.983 65.1064 165.893C65.4219 165.721 65.594 165.405 65.594 165.032C65.594 164.688 65.4219 164.373 65.1064 164.172C62.0662 162.422 55.154 158.436 52.1424 156.686Z" stroke="#AEBBBA" stroke-width="1.43407" stroke-miterlimit="1.5" stroke-linecap="round" stroke-linejoin="round"/>
<path d="M45.4598 229.881C45.804 229.279 45.6032 228.533 45.0009 228.189C41.3297 226.067 29.1975 219.068 24.293 216.229C24.0062 216.057 23.662 216.114 23.4325 216.315C23.2031 216.544 23.1457 216.889 23.2891 217.175C23.9488 218.523 24.6658 219.986 24.6658 219.986L44.542 231.459C44.542 231.459 45.0296 230.598 45.4598 229.881Z" stroke="#AEBBBA" stroke-width="1.43407" stroke-miterlimit="1.5" stroke-linecap="round" stroke-linejoin="round"/>
<path d="M50.3072 221.42L18.5283 203.064V207.71L50.3359 226.066V221.42H50.3072Z" stroke="#AEBBBA" stroke-width="1.43407" stroke-miterlimit="1.5" stroke-linecap="round" stroke-linejoin="round"/>
<path d="M88.4819 226.41C91.2067 224.833 93.3864 226.123 93.3864 229.25C93.3864 232.376 91.178 236.191 88.4819 237.768C85.7572 239.346 83.5774 238.055 83.5774 234.929C83.5487 231.802 85.7572 227.988 88.4819 226.41Z" stroke="#AEBBBA" stroke-width="1.43407" stroke-miterlimit="1.5" stroke-linecap="round" stroke-linejoin="round"/>
<path d="M164.43 182.557C167.155 180.979 169.363 182.27 169.363 185.396C169.363 188.522 167.155 192.337 164.43 193.915C161.705 195.492 159.526 194.201 159.526 191.075C159.497 187.949 161.705 184.134 164.43 182.557Z" stroke="#AEBBBA" stroke-width="1.43407" stroke-miterlimit="1.5" stroke-linecap="round" stroke-linejoin="round"/>
<path d="M231 144.124C233.724 142.546 235.904 143.837 235.904 146.963C235.904 150.089 233.696 153.904 231 155.481C228.275 157.059 226.095 155.768 226.095 152.642C226.066 149.516 228.275 145.701 231 144.124Z" stroke="#AEBBBA" stroke-width="1.43407" stroke-miterlimit="1.5" stroke-linecap="round" stroke-linejoin="round"/>
<path d="M258.247 128.406C260.972 126.829 263.152 128.12 263.152 131.246C263.152 134.372 260.943 138.187 258.247 139.764C255.523 141.342 253.343 140.051 253.343 136.925C253.343 133.77 255.551 129.955 258.247 128.406Z" stroke="#AEBBBA" stroke-width="1.43407" stroke-miterlimit="1.5" stroke-linecap="round" stroke-linejoin="round"/>
<path d="M68.5482 185.654L14.9141 154.678" stroke="#1F4B45" stroke-width="1.43407" stroke-miterlimit="1.5" stroke-linecap="round" stroke-linejoin="round"/>
<path d="M103.97 174.383L89.4287 182.786" stroke="#1F4B45" stroke-width="1.43407" stroke-miterlimit="1.5" stroke-linecap="round" stroke-linejoin="round"/>
<path d="M67.573 202.519C66.225 207.28 65.3932 212.127 65.7661 216.716C65.8234 217.261 66.1389 217.749 66.6265 218.007C67.1141 218.265 67.7164 218.236 68.1753 217.978C72.162 215.684 80.8238 210.693 85.0399 208.255C86.5313 207.395 87.4205 205.817 87.4205 204.125C87.4205 199.421 87.4205 189.985 87.4205 185.912C87.4205 185.511 87.191 185.138 86.8468 184.937C86.5027 184.736 86.0724 184.736 85.6996 184.937C83.233 186.371 78.5292 189.067 75.0014 191.104C73.2519 192.108 71.7605 193.484 70.5845 195.09" stroke="#AEBBBA" stroke-width="1.43407" stroke-miterlimit="1.5" stroke-linecap="round" stroke-linejoin="round"/>
<path d="M89.4287 173.608V217.204" stroke="#1F4B45" stroke-width="1.43407" stroke-miterlimit="1.5" stroke-linecap="round" stroke-linejoin="round"/>
<path d="M75.8627 243.39C75.6333 242.415 75.5186 241.354 75.5186 240.178C75.5186 231.918 81.3122 221.879 88.4538 217.749C95.5955 213.619 101.389 216.975 101.389 225.235C101.389 226.411 101.274 227.615 101.045 228.849" stroke="#1F4B45" stroke-width="1.43407" stroke-miterlimit="1.5" stroke-linecap="round" stroke-linejoin="round"/>
<path d="M101.331 228.676L144.066 204.01V193.685L139.104 190.817" stroke="#1F4B45" stroke-width="1.43407" stroke-miterlimit="1.5" stroke-linecap="round" stroke-linejoin="round"/>
<path d="M106.322 213.188V225.808" stroke="#1F4B45" stroke-width="1.43407" stroke-miterlimit="1.5" stroke-linecap="round" stroke-linejoin="round"/>
<path d="M88.483 221.191C93.703 218.179 97.9192 220.617 97.9192 226.64C97.9192 232.663 93.703 239.977 88.483 242.988C83.263 246 79.0469 243.562 79.0469 237.539C79.0469 231.544 83.263 224.202 88.483 221.191Z" stroke="#1F4B45" stroke-width="1.43407" stroke-miterlimit="1.5" stroke-linecap="round" stroke-linejoin="round"/>
<path d="M95.3944 220.646L89.4287 217.204" stroke="#1F4B45" stroke-width="1.43407" stroke-miterlimit="1.5" stroke-linecap="round" stroke-linejoin="round"/>
<path d="M81.4835 243.447L75.6611 240.063" stroke="#1F4B45" stroke-width="1.43407" stroke-miterlimit="1.5" stroke-linecap="round" stroke-linejoin="round"/>
<path d="M164.43 177.337C169.65 174.325 173.866 176.763 173.866 182.786C173.866 188.81 169.65 196.123 164.43 199.135C159.21 202.146 154.994 199.708 154.994 193.685C154.994 187.691 159.21 180.349 164.43 177.337Z" stroke="#1F4B45" stroke-width="1.43407" stroke-miterlimit="1.5" stroke-linecap="round" stroke-linejoin="round"/>
<path d="M148.627 194.517C147.021 193.484 146.046 191.419 146.046 188.522C146.046 187.949 146.075 187.346 146.161 186.744" stroke="#1F4B45" stroke-width="1.43407" stroke-miterlimit="1.5" stroke-linecap="round" stroke-linejoin="round"/>
<path d="M242.443 140.338C240.866 139.305 239.891 137.24 239.891 134.343C239.891 133.77 239.919 133.167 240.005 132.565" stroke="#1F4B45" stroke-width="1.43407" stroke-miterlimit="1.5" stroke-linecap="round" stroke-linejoin="round"/>
<path d="M157.433 199.594L148.628 194.517" stroke="#1F4B45" stroke-width="1.43407" stroke-miterlimit="1.5" stroke-linecap="round" stroke-linejoin="round"/>
<path d="M230.999 138.904C236.219 135.892 240.435 138.33 240.435 144.353C240.435 150.376 236.219 157.69 230.999 160.702C225.779 163.713 221.562 161.275 221.562 155.252C221.562 149.229 225.779 141.915 230.999 138.904Z" stroke="#1F4B45" stroke-width="1.43407" stroke-miterlimit="1.5" stroke-linecap="round" stroke-linejoin="round"/>
<path d="M237.912 138.358L233.925 136.064" stroke="#1F4B45" stroke-width="1.43407" stroke-miterlimit="1.5" stroke-linecap="round" stroke-linejoin="round"/>
<path d="M224 161.161L216.601 156.887" stroke="#1F4B45" stroke-width="1.43407" stroke-miterlimit="1.5" stroke-linecap="round" stroke-linejoin="round"/>
<path d="M258.248 123.186C263.468 120.175 267.684 122.613 267.684 128.636C267.684 134.659 263.468 141.972 258.248 144.984C253.028 147.995 248.812 145.558 248.812 139.534C248.812 133.511 253.056 126.169 258.248 123.186Z" stroke="#1F4B45" stroke-width="1.43407" stroke-miterlimit="1.5" stroke-linecap="round" stroke-linejoin="round"/>
<path d="M265.16 122.641L261.173 120.347" stroke="#1F4B45" stroke-width="1.43407" stroke-miterlimit="1.5" stroke-linecap="round" stroke-linejoin="round"/>
<path d="M251.248 145.414L242.442 140.338" stroke="#1F4B45" stroke-width="1.43407" stroke-miterlimit="1.5" stroke-linecap="round" stroke-linejoin="round"/>
<path d="M124.19 199.421L279.184 109.936" stroke="#1F4B45" stroke-width="1.43407" stroke-miterlimit="1.5" stroke-linecap="round" stroke-linejoin="round"/>
<path d="M280.188 109.362V63.4717L124.19 153.531V199.421L280.188 109.362Z" stroke="#1F4B45" stroke-width="1.43407" stroke-miterlimit="1.5" stroke-linecap="round" stroke-linejoin="round"/>
<path d="M124.191 162.709V153.531L70.5566 122.555V131.733" stroke="#1F4B45" stroke-width="1.43407" stroke-miterlimit="1.5" stroke-linecap="round" stroke-linejoin="round"/>
<path d="M144.067 193.685L106.322 215.483" stroke="#1F4B45" stroke-width="1.43407" stroke-miterlimit="1.5" stroke-linecap="round" stroke-linejoin="round"/>
<path d="M89.4282 208.026C89.4282 208.026 89.1701 208.169 88.8546 208.37C87.9655 208.886 87.4492 209.804 87.4492 210.808V213.705C87.4492 213.963 87.5926 214.192 87.7934 214.307C88.0228 214.422 88.281 214.422 88.5104 214.307C88.998 214.02 89.4282 213.762 89.4282 213.762V208.026Z" stroke="#1F4B45" stroke-width="1.43407" stroke-miterlimit="1.5" stroke-linecap="round" stroke-linejoin="round"/>
<path d="M70.5566 122.556L226.554 32.4961L280.217 63.4719" stroke="#1F4B45" stroke-width="1.43407" stroke-miterlimit="1.5" stroke-linecap="round" stroke-linejoin="round"/>
<path d="M179.831 167.298V181.065L216.601 159.841V146.074" stroke="#1F4B45" stroke-width="1.43407" stroke-miterlimit="1.5" stroke-linecap="round" stroke-linejoin="round"/>
<path d="M179.833 181.065L167.901 174.182" stroke="#1F4B45" stroke-width="1.43407" stroke-miterlimit="1.5" stroke-linecap="round" stroke-linejoin="round"/>
<path d="M278.181 110.509V126.571" stroke="#1F4B45" stroke-width="1.43407" stroke-miterlimit="1.5" stroke-linecap="round" stroke-linejoin="round"/>
<path d="M278.181 126.571L264.271 118.54" stroke="#1F4B45" stroke-width="1.43407" stroke-miterlimit="1.5" stroke-linecap="round" stroke-linejoin="round"/>
<path d="M124.19 191.391L280.188 101.332" stroke="#1F4B45" stroke-width="1.43407" stroke-miterlimit="1.5" stroke-linecap="round" stroke-linejoin="round"/>
<path d="M124.191 191.391L111.284 183.934" stroke="#1F4B45" stroke-width="1.43407" stroke-miterlimit="1.5" stroke-linecap="round" stroke-linejoin="round"/>
<path d="M124.191 199.422L111.284 191.964" stroke="#1F4B45" stroke-width="1.43407" stroke-miterlimit="1.5" stroke-linecap="round" stroke-linejoin="round"/>
<path d="M130.558 184.278V191.161" stroke="#AEBBBA" stroke-width="1.43407" stroke-miterlimit="1.5" stroke-linecap="round" stroke-linejoin="round"/>
<path d="M154.42 170.511V177.394" stroke="#AEBBBA" stroke-width="1.43407" stroke-miterlimit="1.5" stroke-linecap="round" stroke-linejoin="round"/>
<path d="M178.255 156.744V163.627" stroke="#AEBBBA" stroke-width="1.43407" stroke-miterlimit="1.5" stroke-linecap="round" stroke-linejoin="round"/>
<path d="M202.09 143.177V149.86" stroke="#AEBBBA" stroke-width="1.43407" stroke-miterlimit="1.5" stroke-linecap="round" stroke-linejoin="round"/>
<path d="M225.951 129.209V136.093" stroke="#AEBBBA" stroke-width="1.43407" stroke-miterlimit="1.5" stroke-linecap="round" stroke-linejoin="round"/>
<path d="M249.786 115.442V122.325" stroke="#AEBBBA" stroke-width="1.43407" stroke-miterlimit="1.5" stroke-linecap="round" stroke-linejoin="round"/>
<path d="M273.649 101.876V108.559" stroke="#AEBBBA" stroke-width="1.43407" stroke-miterlimit="1.5" stroke-linecap="round" stroke-linejoin="round"/>
<path d="M17.8972 156.399C13.1934 159.239 12.8779 165.033 12.8779 165.033L60.0874 192.222" stroke="#1F4B45" stroke-width="1.43407" stroke-miterlimit="1.5" stroke-linecap="round" stroke-linejoin="round"/>
<path d="M65.566 183.934C61.2065 185.913 60.0879 192.251 60.0879 192.251L62.2964 191.419" stroke="#1F4B45" stroke-width="1.43407" stroke-miterlimit="1.5" stroke-linecap="round" stroke-linejoin="round"/>
<path d="M62.2969 191.419C62.2969 191.419 64.4193 185.827 65.9394 184.278" stroke="#1F4B45" stroke-width="1.43407" stroke-miterlimit="1.5" stroke-linecap="round" stroke-linejoin="round"/>
<path d="M61.1201 242.185C61.1201 242.185 55.097 238.715 52.9459 237.453C52.487 237.195 52.2002 236.679 52.2002 236.134V233.81C52.2002 233.294 52.5157 232.778 52.9746 232.52C53.5769 232.176 54.2653 231.917 54.8676 232.262C57.5062 233.782 61.6077 236.162 61.6077 236.162" stroke="#1F4B45" stroke-width="1.43407" stroke-miterlimit="1.5" stroke-linecap="round" stroke-linejoin="round"/>
<path d="M16.8934 215.483C16.8934 215.483 16.7213 215.569 16.5206 215.683C16.119 215.913 15.6601 215.913 15.2586 215.683C13.5664 214.708 8.97736 212.041 6.94099 210.865C6.33868 210.521 5.96582 209.861 5.96582 209.173C5.96582 208.312 5.96582 207.165 5.96582 206.19C5.96582 205.846 6.13791 205.53 6.42472 205.387L7.62934 204.698C7.91615 204.526 8.08824 204.641 8.37505 204.813C10.1246 205.817 13.0788 207.509 15.0004 208.628C16.1764 209.316 16.8934 210.549 16.8934 211.926V215.483Z" stroke="#1F4B45" stroke-width="1.43407" stroke-miterlimit="1.5" stroke-linecap="round" stroke-linejoin="round"/>
<path d="M61.6074 236.162C61.6074 236.162 65.8523 233.724 68.0034 232.462C68.2328 232.347 68.4909 232.347 68.7204 232.462" stroke="#1F4B45" stroke-width="1.43407" stroke-miterlimit="1.5" stroke-linecap="round" stroke-linejoin="round"/>
<path d="M68.7216 232.462C68.9511 232.577 69.1519 232.692 69.3526 232.835C69.9263 233.179 70.0697 233.724 70.0697 233.954C70.0697 234.843 70.0697 235.962 70.0697 236.822C70.0697 237.625 69.6395 238.399 68.9224 238.801C67.3736 239.69 64.5915 241.296 63.1001 242.157C62.4978 242.501 61.7234 242.501 61.1211 242.157" stroke="#1F4B45" stroke-width="1.43407" stroke-miterlimit="1.5" stroke-linecap="round" stroke-linejoin="round"/>
<path d="M73.5103 200.397C73.5103 199.45 72.994 198.59 72.1909 198.102C71.3305 197.614 70.2119 196.955 69.2941 196.41C68.9499 196.209 68.491 196.209 68.1469 196.41C67.8027 196.611 67.5732 196.983 67.5732 197.414C67.5732 200.425 67.5732 206.104 67.5732 208.8C67.5732 209.747 68.0895 210.607 68.8926 211.095C69.753 211.582 70.8716 212.242 71.7894 212.787C72.1336 212.988 72.5925 212.988 72.9367 212.787C73.2808 212.586 73.5103 212.213 73.5103 211.783C73.5103 208.772 73.5103 203.093 73.5103 200.397Z" stroke="#1F4B45" stroke-width="1.43407" stroke-miterlimit="1.5" stroke-linecap="round" stroke-linejoin="round"/>
<path d="M74.9441 211.64C75.2883 211.439 75.5177 211.066 75.5177 210.636C75.5177 207.625 75.5177 201.946 75.5177 199.25C75.5177 198.303 75.0014 197.443 74.1984 196.955C73.3379 196.468 72.2194 195.808 71.3016 195.263C70.9574 195.062 70.4985 195.062 70.1543 195.263" stroke="#1F4B45" stroke-width="1.43407" stroke-miterlimit="1.5" stroke-linecap="round" stroke-linejoin="round"/>
<path d="M68.1465 196.41L70.1255 195.263" stroke="#1F4B45" stroke-width="1.43407" stroke-miterlimit="1.5" stroke-linecap="round" stroke-linejoin="round"/>
<path d="M72.9365 212.787L75.0016 211.582" stroke="#1F4B45" stroke-width="1.43407" stroke-miterlimit="1.5" stroke-linecap="round" stroke-linejoin="round"/>
<path d="M11.215 162.882C10.6987 162.566 10.1538 162.279 9.66619 161.992C9.32202 161.792 8.86312 161.792 8.51894 161.992C8.17476 162.193 7.94531 162.566 7.94531 162.996C7.94531 166.008 7.94531 171.687 7.94531 174.383C7.94531 175.1 8.23213 175.788 8.74839 176.276" stroke="#1F4B45" stroke-width="1.43407" stroke-miterlimit="1.5" stroke-linecap="round" stroke-linejoin="round"/>
<path d="M11.6736 160.845C11.3294 160.645 10.8705 160.645 10.5264 160.845" stroke="#1F4B45" stroke-width="1.43407" stroke-miterlimit="1.5" stroke-linecap="round" stroke-linejoin="round"/>
<path d="M8.51953 161.992L10.4985 160.845" stroke="#1F4B45" stroke-width="1.43407" stroke-miterlimit="1.5" stroke-linecap="round" stroke-linejoin="round"/>
<path d="M100.843 228.964L97.8604 227.243" stroke="#1F4B45" stroke-width="1.43407" stroke-miterlimit="1.5" stroke-linecap="round" stroke-linejoin="round"/>
</svg>
